<svg width="13" height="13" viewBox="0 0 13 13" fill="none" xmlns="http://www.w3.org/2000/svg">
<path d="M13 6.4935C13 2.90875 10.088 0 6.5 0C2.912 0 0 2.90875 0 6.4935C0 8.46788 0.897 10.2472 2.301 11.4416C2.314 11.4546 2.327 11.4546 2.327 11.4676C2.444 11.5586 2.561 11.6496 2.691 11.7406C2.756 11.7796 2.808 11.8308 2.873 11.8828C3.94718 12.6111 5.2152 13.0003 6.513 13C7.8108 13.0003 9.07882 12.6111 10.153 11.8828C10.218 11.8438 10.27 11.7926 10.335 11.7528C10.452 11.6626 10.582 11.5716 10.699 11.4806C10.712 11.4676 10.725 11.4676 10.725 11.4546C12.103 10.2464 13 8.46788 13 6.4935ZM6.5 12.1818C5.278 12.1818 4.16 11.7918 3.237 11.1426C3.25 11.0386 3.276 10.9354 3.302 10.8314C3.37946 10.5496 3.49307 10.2789 3.64 10.0262C3.783 9.77925 3.952 9.55825 4.16 9.36325C4.355 9.16825 4.589 8.98706 4.823 8.84406C5.07 8.70106 5.33 8.59706 5.616 8.51906C5.90422 8.44137 6.20149 8.4023 6.5 8.40287C7.38615 8.3966 8.23975 8.73652 8.879 9.35025C9.178 9.64925 9.412 10.0003 9.581 10.4024C9.672 10.6364 9.737 10.8834 9.776 11.1426C8.81658 11.8171 7.67279 12.18 6.5 12.1818ZM4.511 6.16931C4.39646 5.90705 4.33885 5.62348 4.342 5.33731C4.342 5.05212 4.394 4.76613 4.511 4.50612C4.628 4.24613 4.784 4.01294 4.979 3.81794C5.174 3.62294 5.408 3.46775 5.668 3.35075C5.928 3.23375 6.214 3.18175 6.5 3.18175C6.799 3.18175 7.072 3.23375 7.332 3.35075C7.592 3.46775 7.826 3.62375 8.021 3.81794C8.216 4.01294 8.372 4.24694 8.489 4.50612C8.606 4.76613 8.658 5.05212 8.658 5.33731C8.658 5.63631 8.606 5.90931 8.489 6.1685C8.37608 6.42465 8.2175 6.65812 8.021 6.8575C7.82156 7.05371 7.58809 7.21202 7.332 7.32469C6.7948 7.54545 6.1922 7.54545 5.655 7.32469C5.39891 7.21202 5.16544 7.05371 4.966 6.8575C4.76922 6.66103 4.61443 6.42743 4.511 6.16931ZM10.543 10.4804C10.543 10.4544 10.53 10.4414 10.53 10.4154C10.4021 10.0087 10.2137 9.62359 9.971 9.27306C9.72808 8.91993 9.42955 8.6085 9.087 8.35087C8.82539 8.15407 8.54183 7.98829 8.242 7.85687C8.3784 7.76689 8.50479 7.66256 8.619 7.54569C8.81281 7.35435 8.98303 7.14049 9.126 6.90869C9.41392 6.43566 9.56261 5.89102 9.555 5.33731C9.55902 4.92742 9.4794 4.52101 9.321 4.14294C9.16461 3.77864 8.93951 3.44789 8.658 3.16875C8.37691 2.89253 8.04609 2.67198 7.683 2.51875C7.3043 2.36063 6.89736 2.28129 6.487 2.28556C6.07658 2.28155 5.66964 2.36117 5.291 2.51956C4.92477 2.67246 4.59315 2.89769 4.316 3.18175C4.03978 3.46254 3.81923 3.79309 3.666 4.15594C3.5076 4.53401 3.42798 4.94042 3.432 5.35031C3.432 5.63631 3.471 5.90931 3.549 6.1685C3.627 6.4415 3.731 6.6885 3.874 6.92169C4.004 7.15569 4.186 7.36369 4.381 7.55869C4.498 7.67569 4.628 7.77887 4.771 7.86987C4.47024 8.0048 4.18658 8.17499 3.926 8.37687C3.588 8.63688 3.289 8.94806 3.042 9.28606C2.79684 9.63514 2.60819 10.0207 2.483 10.4284C2.47 10.4544 2.47 10.4804 2.47 10.4934C1.443 9.45425 0.806 8.05188 0.806 6.4935C0.806 3.36375 3.367 0.805188 6.5 0.805188C9.633 0.805188 12.194 3.36375 12.194 6.4935C12.1923 7.98847 11.5987 9.42193 10.543 10.4804Z" fill="#464646"/>
</svg>
