<svg width="17" height="18" viewBox="0 0 17 18" fill="none" xmlns="http://www.w3.org/2000/svg">
<g clip-path="url(#clip0_2904_3759)">
<path d="M3.54167 3H6.375L7.79167 6.75L6.02083 7.875C6.77943 9.50365 8.02433 10.8218 9.5625 11.625L10.625 9.75L14.1667 11.25V14.25C14.1667 14.6478 14.0174 15.0294 13.7517 15.3107C13.4861 15.592 13.1257 15.75 12.75 15.75C9.98698 15.5722 7.38094 14.3299 5.42359 12.2574C3.46623 10.1849 2.29291 7.42555 2.125 4.5C2.125 4.10218 2.27426 3.72064 2.53993 3.43934C2.80561 3.15804 3.16594 3 3.54167 3Z" stroke="#45C4A0" stroke-linecap="round" stroke-linejoin="round"/>
<path d="M10.625 5.25C11.0007 5.25 11.3611 5.40804 11.6267 5.68934C11.8924 5.97064 12.0417 6.35218 12.0417 6.75" stroke="#45C4A0" stroke-linecap="round" stroke-linejoin="round"/>
<path d="M10.625 2.25C11.7522 2.25 12.8332 2.72411 13.6302 3.56802C14.4272 4.41193 14.875 5.55653 14.875 6.75" stroke="#45C4A0" stroke-linecap="round" stroke-linejoin="round"/>
</g>
<defs>
<clipPath id="clip0_2904_3759">
<rect width="17" height="18" fill="white"/>
</clipPath>
</defs>
</svg>
