<svg width="26" height="27" viewBox="0 0 26 27" fill="none" xmlns="http://www.w3.org/2000/svg">
<path d="M12.5 12.6786L12.5 14.3214M12.5 7.75L12.5 9.39286M12.5 17.6071L12.5 19.25M1 25L1 13.5C1 11.2255 1.67446 9.00211 2.9381 7.11095C4.20173 5.21978 5.99779 3.7458 8.09914 2.87539C10.2005 2.00498 12.5128 1.77724 14.7435 2.22097C16.9743 2.6647 19.0234 3.75997 20.6317 5.36828C22.24 6.97658 23.3353 9.02568 23.779 11.2565C24.2228 13.4872 23.995 15.7995 23.1246 17.9009C22.2542 20.0022 20.7802 21.7983 18.8891 23.0619C16.9979 24.3255 14.7745 25 12.5 25L1 25Z" stroke="#777777" stroke-width="1.5"/>
</svg>
