<svg width="25" height="25" viewBox="0 0 25 25" fill="none" xmlns="http://www.w3.org/2000/svg">
<path d="M12.5 11.6786L12.5 13.3214L12.5 11.6786ZM12.5 16.6071L12.5 18.25L12.5 16.6071ZM1 24L1 12.5C1 10.2255 1.67446 8.00211 2.9381 6.11095C4.20173 4.21978 5.99779 2.7458 8.09914 1.87539C10.2005 1.00498 12.5128 0.777244 14.7435 1.22097C16.9743 1.6647 19.0234 2.75997 20.6317 4.36828C22.24 5.97658 23.3353 8.02568 23.779 10.2565C24.2228 12.4872 23.995 14.7995 23.1246 16.9009C22.2542 19.0022 20.7802 20.7983 18.8891 22.0619C16.9979 23.3255 14.7745 24 12.5 24L1 24Z" fill="#F16861"/>
<path d="M12.5 11.6786L12.5 13.3214M12.5 16.6071L12.5 18.25M1 24L1 12.5C1 10.2255 1.67446 8.00211 2.9381 6.11095C4.20173 4.21978 5.99779 2.7458 8.09914 1.87539C10.2005 1.00498 12.5128 0.777244 14.7435 1.22097C16.9743 1.6647 19.0234 2.75997 20.6317 4.36828C22.24 5.97658 23.3353 8.02568 23.779 10.2565C24.2228 12.4872 23.995 14.7995 23.1246 16.9009C22.2542 19.0022 20.7802 20.7983 18.8891 22.0619C16.9979 23.3255 14.7745 24 12.5 24L1 24Z" stroke="#F16861" stroke-width="1.5"/>
</svg>
