<svg width="15" height="13" viewBox="0 0 15 13" fill="none" xmlns="http://www.w3.org/2000/svg">
<path d="M12.8124 7.04844L7.49993 12.0004L2.18743 7.04844C1.83702 6.72752 1.56101 6.34179 1.37677 5.91553C1.19254 5.48928 1.10408 5.03174 1.11695 4.57173C1.12983 4.11172 1.24376 3.6592 1.45158 3.24267C1.6594 2.82614 1.95661 2.45461 2.32448 2.1515C2.69235 1.84838 3.12293 1.62024 3.58909 1.48143C4.05524 1.34263 4.54689 1.29617 5.03306 1.34498C5.51924 1.39379 5.98941 1.53681 6.41396 1.76505C6.83852 1.99328 7.20827 2.30178 7.49993 2.67111C7.79285 2.30446 8.16303 1.99866 8.58729 1.77285C9.01156 1.54704 9.48078 1.40608 9.96559 1.35879C10.4504 1.3115 10.9404 1.35891 11.4048 1.49804C11.8693 1.63717 12.2982 1.86503 12.6648 2.16735C13.0314 2.46968 13.3277 2.83997 13.5352 3.25504C13.7428 3.67011 13.857 4.12103 13.8709 4.57958C13.8848 5.03813 13.7979 5.49444 13.6158 5.91994C13.4336 6.34545 13.1602 6.73099 12.8124 7.05244" stroke="#464646" stroke-linecap="round" stroke-linejoin="round"/>
</svg>
