<svg width="27" height="27" viewBox="0 0 27 27" fill="none" xmlns="http://www.w3.org/2000/svg">
<path d="M25 9.78285C25 17.4409 14.343 23.6396 13.8892 23.8956C13.7695 23.9641 13.6358 24 13.5 24C13.3642 24 13.2305 23.9641 13.1108 23.8956C12.657 23.6396 2 17.4409 2 9.78285C2.0019 7.98455 2.67322 6.26048 3.86668 4.98889C5.06014 3.7173 6.67827 3.00203 8.36607 3C10.4864 3 12.3428 3.97148 13.5 5.61358C14.6572 3.97148 16.5136 3 18.6339 3C20.3217 3.00203 21.9399 3.7173 23.1333 4.98889C24.3268 6.26048 24.9981 7.98455 25 9.78285Z" stroke="#777777" stroke-width="1.5"/>
</svg>
