<svg width="16" height="15" viewBox="0 0 16 15" fill="none" xmlns="http://www.w3.org/2000/svg">
<g clip-path="url(#clip0_2979_778)">
<path d="M8 13.125C11.3137 13.125 14 10.6066 14 7.5C14 4.3934 11.3137 1.875 8 1.875C4.68629 1.875 2 4.3934 2 7.5C2 10.6066 4.68629 13.125 8 13.125Z" stroke="#464646" stroke-linecap="round" stroke-linejoin="round"/>
<path d="M8 10.625V10.6325" stroke="#464646" stroke-width="2" stroke-linecap="round" stroke-linejoin="round"/>
<path d="M7.99984 8.43773C7.98756 8.23483 8.04594 8.0337 8.16618 7.86461C8.28642 7.69552 8.46201 7.56764 8.6665 7.50023C8.91709 7.41039 9.142 7.26725 9.32355 7.08207C9.5051 6.8969 9.63832 6.67474 9.71272 6.43309C9.78712 6.19145 9.80068 5.93691 9.75232 5.68952C9.70397 5.44212 9.59501 5.20863 9.43405 5.00742C9.27308 4.80621 9.06449 4.64278 8.8247 4.52999C8.58491 4.4172 8.32047 4.35813 8.05219 4.35743C7.78391 4.35673 7.51912 4.41442 7.27867 4.52597C7.03821 4.63751 6.82866 4.79986 6.6665 5.00023" stroke="#464646" stroke-linecap="round" stroke-linejoin="round"/>
</g>
<defs>
<clipPath id="clip0_2979_778">
<rect width="16" height="15" fill="white"/>
</clipPath>
</defs>
</svg>
