<svg width="27" height="27" viewBox="0 0 27 27" fill="none" xmlns="http://www.w3.org/2000/svg">
<g id="solar:home-2-broken">
<path id="Vector" d="M24 13.7142V15.3112C24 19.4062 24 21.4548 22.7694 22.7274C21.5398 24 19.5595 24 15.6 24H11.4C7.44045 24 5.46015 24 4.2306 22.7274C3 21.4548 3 19.4073 3 15.3112V13.7142C3 11.3108 3 10.1095 3.546 9.11415C4.0899 8.1177 5.08635 7.5003 7.0782 6.2634L9.1782 4.96035C11.2834 3.6531 12.3366 3 13.5 3C14.6634 3 15.7155 3.6531 17.8218 4.96035L19.9218 6.2634C21.9136 7.5003 22.9101 8.1177 23.455 9.11415" stroke="#777777" stroke-width="1.5" stroke-linecap="round"/>
<rect id="Rectangle 344" x="13" y="17" width="2" height="5" rx="0.5" fill="#FFF8F8"/>
</g>
</svg>
