<svg width="24" height="19" viewBox="0 0 24 19" fill="none" xmlns="http://www.w3.org/2000/svg">
<g clip-path="url(#clip0_1587_3840)">
<mask id="mask0_1587_3840" style="mask-type:luminance" maskUnits="userSpaceOnUse" x="0" y="0" width="24" height="19">
<path d="M23.508 0H0V18.254H23.508V0Z" fill="white"/>
</mask>
<g mask="url(#mask0_1587_3840)">
<path d="M21.966 3.13922H1.54208C0.685367 3.13922 0 2.42999 0 1.56962C0 0.709232 0.685367 0 1.54208 0H21.966C22.8227 0 23.508 0.697605 23.508 1.56962C23.508 2.44162 22.8227 3.13922 21.966 3.13922Z" fill="#5C5C5C"/>
<path d="M14.5412 10.6978H1.54208C0.685367 10.6978 0 9.98857 0 9.1282C0 8.26782 0.685367 7.55859 1.54208 7.55859H14.5412C15.3979 7.55859 16.0832 8.25619 16.0832 9.1282C16.0832 10.0002 15.3979 10.6978 14.5412 10.6978Z" fill="#5C5C5C"/>
<path d="M7.11639 18.2544H1.54208C0.685367 18.2544 0 17.5452 0 16.6849C0 15.8245 0.685367 15.1152 1.54208 15.1152H7.11639C7.97309 15.1152 8.65845 15.8128 8.65845 16.6849C8.65845 17.5569 7.97309 18.2544 7.11639 18.2544Z" fill="#5C5C5C"/>
</g>
</g>
<defs>
<clipPath id="clip0_1587_3840">
<rect width="24" height="19" fill="white"/>
</clipPath>
</defs>
</svg>
