<svg width="22" height="20" viewBox="0 0 22 20" fill="none" xmlns="http://www.w3.org/2000/svg">
<g clip-path="url(#clip0_2904_4399)">
<path d="M9.1665 4.16667C9.1665 3.72464 9.35966 3.30072 9.70348 2.98816C10.0473 2.67559 10.5136 2.5 10.9998 2.5C11.4861 2.5 11.9524 2.67559 12.2962 2.98816C12.64 3.30072 12.8332 3.72464 12.8332 4.16667C13.8859 4.61919 14.7833 5.32361 15.4292 6.20442C16.0751 7.08523 16.4452 8.10923 16.4998 9.16667V11.6667C16.5688 12.1848 16.7707 12.6809 17.0891 13.1151C17.4075 13.5493 17.8336 13.9095 18.3332 14.1667H3.6665C4.16603 13.9095 4.59216 13.5493 4.91059 13.1151C5.22902 12.6809 5.43085 12.1848 5.49984 11.6667V9.16667C5.55443 8.10923 5.92453 7.08523 6.57046 6.20442C7.21639 5.32361 8.1138 4.61919 9.1665 4.16667Z" stroke="#464646" stroke-linecap="round" stroke-linejoin="round"/>
<path d="M8.25 14.166V14.9993C8.25 15.6624 8.53973 16.2983 9.05546 16.7671C9.57118 17.236 10.2707 17.4993 11 17.4993C11.7293 17.4993 12.4288 17.236 12.9445 16.7671C13.4603 16.2983 13.75 15.6624 13.75 14.9993V14.166" stroke="#464646" stroke-linecap="round" stroke-linejoin="round"/>
</g>
<defs>
<clipPath id="clip0_2904_4399">
<rect width="22" height="20" fill="white"/>
</clipPath>
</defs>
</svg>
