<svg width="27" height="27" viewBox="0 0 27 27" fill="none" xmlns="http://www.w3.org/2000/svg">
<g id="iconamoon:profile-light">
<g id="Group">
<path id="Vector" d="M3.50006 21.1875C3.50006 19.8283 4.04001 18.5247 5.00113 17.5636C5.96225 16.6025 7.26581 16.0625 8.62504 16.0625H18.875C20.2342 16.0625 21.5378 16.6025 22.4989 17.5636C23.46 18.5247 24 19.8283 24 21.1875C24 21.8671 23.73 22.5189 23.2494 22.9994C22.7689 23.48 22.1171 23.75 21.4375 23.75H6.06255C5.38294 23.75 4.73116 23.48 4.2506 22.9994C3.77004 22.5189 3.50006 21.8671 3.50006 21.1875Z" fill="#F16861"/>
<path id="Vector_2" d="M13.75 10.9375C15.8728 10.9375 17.5937 9.21657 17.5937 7.09374C17.5937 4.9709 15.8728 3.25 13.75 3.25C11.6271 3.25 9.90625 4.9709 9.90625 7.09374C9.90625 9.21657 11.6271 10.9375 13.75 10.9375Z" fill="#F16861"/>
</g>
</g>
</svg>
