<svg width="27" height="27" viewBox="0 0 27 27" fill="none" xmlns="http://www.w3.org/2000/svg">
<g id="iconamoon:profile-light">
<g id="Group">
<path id="Vector" d="M3.5 21.1875C3.5 19.8283 4.03995 18.5247 5.00107 17.5636C5.96219 16.6025 7.26575 16.0625 8.62498 16.0625H18.8749C20.2342 16.0625 21.5377 16.6025 22.4988 17.5636C23.46 18.5247 23.9999 19.8283 23.9999 21.1875C23.9999 21.8671 23.7299 22.5189 23.2494 22.9994C22.7688 23.48 22.117 23.75 21.4374 23.75H6.06249C5.38288 23.75 4.7311 23.48 4.25054 22.9994C3.76998 22.5189 3.5 21.8671 3.5 21.1875Z" stroke="#777777" stroke-width="1.5" stroke-linejoin="round"/>
<path id="Vector_2" d="M13.75 10.9375C15.8728 10.9375 17.5937 9.21657 17.5937 7.09374C17.5937 4.9709 15.8728 3.25 13.75 3.25C11.6271 3.25 9.90625 4.9709 9.90625 7.09374C9.90625 9.21657 11.6271 10.9375 13.75 10.9375Z" stroke="#777777" stroke-width="1.5"/>
</g>
</g>
</svg>
