<svg width="15" height="15" viewBox="0 0 15 15" fill="none" xmlns="http://www.w3.org/2000/svg">
<g clip-path="url(#clip0_2979_769)">
<path d="M5.625 7.5L6.875 8.75L9.375 6.25" stroke="#464646" stroke-linecap="round" stroke-linejoin="round"/>
<path d="M7.49977 1.875C8.95967 3.16661 10.8651 3.8391 12.8123 3.75C13.0958 4.71438 13.1825 5.72592 13.0674 6.72449C12.9522 7.72306 12.6375 8.68829 12.1419 9.56283C11.6463 10.4374 10.98 11.2034 10.1826 11.8153C9.3851 12.4272 8.47277 12.8726 7.49977 13.125C6.52678 12.8726 5.61445 12.4272 4.81699 11.8153C4.01953 11.2034 3.35322 10.4374 2.85765 9.56283C2.36208 8.68829 2.04736 7.72306 1.9322 6.72449C1.81703 5.72592 1.90378 4.71438 2.18727 3.75C4.13448 3.8391 6.03988 3.16661 7.49977 1.875Z" stroke="#464646" stroke-linecap="round" stroke-linejoin="round"/>
</g>
<defs>
<clipPath id="clip0_2979_769">
<rect width="15" height="15" fill="white"/>
</clipPath>
</defs>
</svg>
