<svg width="18" height="18" viewBox="0 0 18 18" fill="none" xmlns="http://www.w3.org/2000/svg">
<path d="M9.75 3.80317C12.2942 4.16709 14.25 6.35515 14.25 9C14.25 11.8995 11.8995 14.25 9 14.25C6.10051 14.25 3.75 11.8995 3.75 9C3.75 7.47119 4.40346 6.09502 5.44631 5.13554L4.38493 4.07416C3.07096 5.30572 2.25 7.05699 2.25 9C2.25 12.728 5.27208 15.75 9 15.75C12.728 15.75 15.75 12.728 15.75 9C15.75 5.27208 12.728 2.25 9 2.25C8.7465 2.25 8.49622 2.26397 8.25 2.2912V6.81413H9.75V3.80317Z" fill="#464646"/>
<path d="M5.78022 6.53022C5.48732 6.82311 5.48732 7.29799 5.78022 7.59088L7.90151 9.71219C8.19446 10.0051 8.66929 10.0051 8.96216 9.71219C9.25511 9.41931 9.25511 8.94441 8.96216 8.65153L6.84088 6.53022C6.54799 6.23732 6.07311 6.23732 5.78022 6.53022Z" fill="#464646"/>
</svg>
