<svg width="14" height="14" viewBox="0 0 14 14" fill="none" xmlns="http://www.w3.org/2000/svg">
<path d="M7.75 1.80317C10.2942 2.16709 12.25 4.35515 12.25 7C12.25 9.8995 9.8995 12.25 7 12.25C4.10051 12.25 1.75 9.8995 1.75 7C1.75 5.47119 2.40346 4.09502 3.44631 3.13554L2.38493 2.07416C1.07096 3.30572 0.25 5.05699 0.25 7C0.25 10.728 3.27208 13.75 7 13.75C10.728 13.75 13.75 10.728 13.75 7C13.75 3.27208 10.728 0.25 7 0.25C6.7465 0.25 6.49622 0.263972 6.25 0.291197V4.81413H7.75V1.80317Z" fill="#464646"/>
</svg>
