<svg width="28" height="16" viewBox="0 0 28 16" fill="none" xmlns="http://www.w3.org/2000/svg">
<g clip-path="url(#clip0_2904_4335)">
<path d="M24.7907 5.00262V3.555C24.7907 2.85658 24.1423 2.28516 23.3498 2.28516H13.2632C12.4635 2.28516 11.8223 2.85658 11.8223 3.555V12.4439C11.8223 13.1423 12.4635 13.7137 13.2632 13.7137H23.3498C24.1423 13.7137 24.7907 13.1423 24.7907 12.4439V10.9963C25.2158 10.774 25.5112 10.374 25.5112 9.9042V6.09468C25.5112 5.62484 25.2158 5.22484 24.7907 5.00262ZM24.0702 6.09468V9.9042H19.0269V6.09468H24.0702ZM13.2632 12.4439V3.555H23.3498V4.82484H19.0269C18.2344 4.82484 17.586 5.39627 17.586 6.09468V9.9042C17.586 10.6026 18.2344 11.174 19.0269 11.174H23.3498V12.4439H13.2632Z" fill="#687081"/>
<path d="M21.7778 9C22.7443 9 23.5278 8.55228 23.5278 8C23.5278 7.44772 22.7443 7 21.7778 7C20.8113 7 20.0278 7.44772 20.0278 8C20.0278 8.55228 20.8113 9 21.7778 9Z" fill="#687081"/>
</g>
<defs>
<clipPath id="clip0_2904_4335">
<rect width="28" height="16" fill="white"/>
</clipPath>
</defs>
</svg>
